<mxfile modified="2020-12-08T22:11:36.543Z" host="app.diagrams.net" agent="5.0 (X11; Linux x86_64) AppleWebKit/537.36 (KHTML, like Gecko) Chrome/87.0.4280.88 Safari/537.36" etag="d4ByTedhxC8MMAj-FTvq" version="13.11.0" type="github">
  <diagram id="Ht1M8jgEwFfnCIfOTk4-" name="Page-1">
    <mxGraphModel dx="1671" dy="838" grid="1" gridSize="10" guides="1" tooltips="1" connect="1" arrows="1" fold="1" page="1" pageScale="1" pageWidth="1169" pageHeight="827" math="0" shadow="0">
      <root>
        <mxCell id="0" />
        <mxCell id="1" parent="0" />
        <mxCell id="HrHExWCUvNeW6Y6cDkBR-26" value="" style="whiteSpace=wrap;html=1;aspect=fixed;" vertex="1" parent="1">
          <mxGeometry width="80" height="80" as="geometry" />
        </mxCell>
        <mxCell id="UEzPUAAOIrF-is8g5C7q-109" value="Work ThinClient" style="outlineConnect=0;gradientColor=none;fontColor=#545B64;strokeColor=none;fillColor=#879196;dashed=0;verticalLabelPosition=bottom;verticalAlign=top;align=center;html=1;fontSize=12;fontStyle=0;aspect=fixed;shape=mxgraph.aws4.illustration_desktop;pointerEvents=1;labelBackgroundColor=#ffffff;" parent="1" vertex="1">
          <mxGeometry x="40" y="441" width="100" height="91" as="geometry" />
        </mxCell>
        <mxCell id="UEzPUAAOIrF-is8g5C7q-110" value="data lake console" style="outlineConnect=0;gradientColor=none;fontColor=#545B64;strokeColor=none;fillColor=#879196;dashed=0;verticalLabelPosition=bottom;verticalAlign=top;align=center;html=1;fontSize=12;fontStyle=0;aspect=fixed;shape=mxgraph.aws4.illustration_notification;pointerEvents=1;labelBackgroundColor=#ffffff;" parent="1" vertex="1">
          <mxGeometry x="1030" y="760" width="100" height="81" as="geometry" />
        </mxCell>
        <mxCell id="HrHExWCUvNeW6Y6cDkBR-8" value="" style="edgeStyle=orthogonalEdgeStyle;rounded=0;orthogonalLoop=1;jettySize=auto;html=1;" edge="1" parent="1" source="HrHExWCUvNeW6Y6cDkBR-1" target="HrHExWCUvNeW6Y6cDkBR-7">
          <mxGeometry relative="1" as="geometry" />
        </mxCell>
        <mxCell id="HrHExWCUvNeW6Y6cDkBR-1" value="" style="fontColor=#0066CC;verticalAlign=top;verticalLabelPosition=bottom;labelPosition=center;align=center;html=1;outlineConnect=0;fillColor=#CCCCCC;strokeColor=#6881B3;gradientColor=none;gradientDirection=north;strokeWidth=2;shape=mxgraph.networks.modem;" vertex="1" parent="1">
          <mxGeometry x="360" y="40" width="100" height="30" as="geometry" />
        </mxCell>
        <mxCell id="HrHExWCUvNeW6Y6cDkBR-4" value="Modem: Netgear CM1100&lt;br&gt;Stock, LAGG not implemented (Yet)" style="text;html=1;strokeColor=#000000;fillColor=none;align=center;verticalAlign=middle;whiteSpace=wrap;rounded=0;" vertex="1" parent="1">
          <mxGeometry x="310" width="200" height="40" as="geometry" />
        </mxCell>
        <mxCell id="HrHExWCUvNeW6Y6cDkBR-6" value="" style="aspect=fixed;html=1;points=[];align=center;image;fontSize=12;image=img/lib/mscae/Docker.svg;" vertex="1" parent="1">
          <mxGeometry x="960" y="330.75" width="50" height="41" as="geometry" />
        </mxCell>
        <mxCell id="HrHExWCUvNeW6Y6cDkBR-11" value="" style="edgeStyle=orthogonalEdgeStyle;rounded=0;orthogonalLoop=1;jettySize=auto;html=1;entryX=0.5;entryY=0;entryDx=0;entryDy=0;entryPerimeter=0;" edge="1" parent="1" source="HrHExWCUvNeW6Y6cDkBR-7" target="HrHExWCUvNeW6Y6cDkBR-12">
          <mxGeometry relative="1" as="geometry">
            <mxPoint x="410" y="280" as="targetPoint" />
            <Array as="points">
              <mxPoint x="410" y="230" />
              <mxPoint x="250" y="230" />
            </Array>
          </mxGeometry>
        </mxCell>
        <mxCell id="HrHExWCUvNeW6Y6cDkBR-7" value="" style="fontColor=#0066CC;verticalAlign=top;verticalLabelPosition=bottom;labelPosition=center;align=center;html=1;outlineConnect=0;fillColor=#CCCCCC;strokeColor=#6881B3;gradientColor=none;gradientDirection=north;strokeWidth=2;shape=mxgraph.networks.router;" vertex="1" parent="1">
          <mxGeometry x="360" y="140" width="100" height="30" as="geometry" />
        </mxCell>
        <mxCell id="HrHExWCUvNeW6Y6cDkBR-9" value="Rotuer: Netgear NightHawk R7000&lt;br&gt;DD WRT:&amp;nbsp;&lt;br&gt;IP: 192.168.1.1" style="text;html=1;strokeColor=#000000;fillColor=none;align=center;verticalAlign=middle;whiteSpace=wrap;rounded=0;" vertex="1" parent="1">
          <mxGeometry x="150" y="113.75" width="200" height="62.5" as="geometry" />
        </mxCell>
        <mxCell id="HrHExWCUvNeW6Y6cDkBR-15" value="" style="edgeStyle=orthogonalEdgeStyle;rounded=0;orthogonalLoop=1;jettySize=auto;html=1;" edge="1" parent="1" source="HrHExWCUvNeW6Y6cDkBR-12" target="UEzPUAAOIrF-is8g5C7q-109">
          <mxGeometry relative="1" as="geometry">
            <Array as="points">
              <mxPoint x="250" y="360" />
              <mxPoint x="90" y="360" />
            </Array>
          </mxGeometry>
        </mxCell>
        <mxCell id="HrHExWCUvNeW6Y6cDkBR-12" value="" style="fontColor=#0066CC;verticalAlign=top;verticalLabelPosition=bottom;labelPosition=center;align=center;html=1;outlineConnect=0;fillColor=#CCCCCC;strokeColor=#6881B3;gradientColor=none;gradientDirection=north;strokeWidth=2;shape=mxgraph.networks.switch;" vertex="1" parent="1">
          <mxGeometry x="200" y="290" width="100" height="30" as="geometry" />
        </mxCell>
        <mxCell id="HrHExWCUvNeW6Y6cDkBR-14" value="Linksys Switch&lt;br&gt;PoE for work IP phone" style="text;html=1;strokeColor=#000000;fillColor=none;align=center;verticalAlign=middle;whiteSpace=wrap;rounded=0;" vertex="1" parent="1">
          <mxGeometry x="10" y="280" width="200" height="40" as="geometry" />
        </mxCell>
        <mxCell id="HrHExWCUvNeW6Y6cDkBR-19" value="Work Laptop&lt;br&gt;(VERY Picky)" style="outlineConnect=0;gradientColor=none;fontColor=#545B64;strokeColor=none;fillColor=#879196;dashed=0;verticalLabelPosition=bottom;verticalAlign=top;align=center;html=1;fontSize=12;fontStyle=0;aspect=fixed;shape=mxgraph.aws4.illustration_desktop;pointerEvents=1;labelBackgroundColor=#ffffff;" vertex="1" parent="1">
          <mxGeometry x="190" y="441" width="100" height="91" as="geometry" />
        </mxCell>
        <mxCell id="HrHExWCUvNeW6Y6cDkBR-20" value="Dell XPS All-in-One" style="outlineConnect=0;gradientColor=none;fontColor=#545B64;strokeColor=none;fillColor=#879196;dashed=0;verticalLabelPosition=bottom;verticalAlign=top;align=center;html=1;fontSize=12;fontStyle=0;aspect=fixed;shape=mxgraph.aws4.illustration_desktop;pointerEvents=1;labelBackgroundColor=#ffffff;" vertex="1" parent="1">
          <mxGeometry x="340" y="441" width="100" height="91" as="geometry" />
        </mxCell>
        <mxCell id="HrHExWCUvNeW6Y6cDkBR-22" value="" style="edgeStyle=orthogonalEdgeStyle;rounded=0;orthogonalLoop=1;jettySize=auto;html=1;exitX=0.5;exitY=1;exitDx=0;exitDy=0;exitPerimeter=0;" edge="1" parent="1" source="HrHExWCUvNeW6Y6cDkBR-12" target="HrHExWCUvNeW6Y6cDkBR-19">
          <mxGeometry relative="1" as="geometry">
            <mxPoint x="320" y="360" as="sourcePoint" />
            <mxPoint x="240" y="420" as="targetPoint" />
            <Array as="points">
              <mxPoint x="250" y="360" />
              <mxPoint x="240" y="360" />
            </Array>
          </mxGeometry>
        </mxCell>
        <mxCell id="HrHExWCUvNeW6Y6cDkBR-23" value="" style="edgeStyle=orthogonalEdgeStyle;rounded=0;orthogonalLoop=1;jettySize=auto;html=1;exitX=0.5;exitY=1;exitDx=0;exitDy=0;exitPerimeter=0;" edge="1" parent="1" source="HrHExWCUvNeW6Y6cDkBR-12" target="HrHExWCUvNeW6Y6cDkBR-20">
          <mxGeometry relative="1" as="geometry">
            <mxPoint x="330" y="360" as="sourcePoint" />
            <mxPoint x="400" y="420" as="targetPoint" />
            <Array as="points">
              <mxPoint x="250" y="360" />
              <mxPoint x="390" y="360" />
            </Array>
          </mxGeometry>
        </mxCell>
        <mxCell id="HrHExWCUvNeW6Y6cDkBR-28" value="" style="fontColor=#0066CC;verticalAlign=top;verticalLabelPosition=bottom;labelPosition=center;align=center;html=1;outlineConnect=0;fillColor=#CCCCCC;strokeColor=#6881B3;gradientColor=none;gradientDirection=north;strokeWidth=2;shape=mxgraph.networks.router;" vertex="1" parent="1">
          <mxGeometry x="610" y="471.5" width="100" height="30" as="geometry" />
        </mxCell>
        <mxCell id="HrHExWCUvNeW6Y6cDkBR-29" value="Windows Server 2019&lt;br&gt;Hyper-V&lt;br&gt;Shares internet to servers below it (ethernet)&lt;br&gt;&quot;Dev Environment&quot;" style="text;html=1;strokeColor=#000000;fillColor=none;align=center;verticalAlign=middle;whiteSpace=wrap;rounded=0;" vertex="1" parent="1">
          <mxGeometry x="720" y="200" width="200" height="80" as="geometry" />
        </mxCell>
        <mxCell id="HrHExWCUvNeW6Y6cDkBR-30" value="" style="endArrow=none;dashed=1;html=1;dashPattern=1 3;strokeWidth=2;exitX=0.9;exitY=1;exitDx=0;exitDy=0;exitPerimeter=0;" edge="1" parent="1" source="HrHExWCUvNeW6Y6cDkBR-7">
          <mxGeometry width="50" height="50" relative="1" as="geometry">
            <mxPoint x="500" y="270" as="sourcePoint" />
            <mxPoint x="650" y="270" as="targetPoint" />
          </mxGeometry>
        </mxCell>
        <mxCell id="HrHExWCUvNeW6Y6cDkBR-33" value="WiFi" style="edgeLabel;html=1;align=center;verticalAlign=middle;resizable=0;points=[];" vertex="1" connectable="0" parent="HrHExWCUvNeW6Y6cDkBR-30">
          <mxGeometry x="-0.1764" y="1" relative="1" as="geometry">
            <mxPoint as="offset" />
          </mxGeometry>
        </mxCell>
        <mxCell id="HrHExWCUvNeW6Y6cDkBR-31" value="" style="endArrow=classic;html=1;entryX=0.5;entryY=0;entryDx=0;entryDy=0;entryPerimeter=0;" edge="1" parent="1" target="HrHExWCUvNeW6Y6cDkBR-32">
          <mxGeometry width="50" height="50" relative="1" as="geometry">
            <mxPoint x="650" y="270" as="sourcePoint" />
            <mxPoint x="570" y="230" as="targetPoint" />
            <Array as="points" />
          </mxGeometry>
        </mxCell>
        <mxCell id="HrHExWCUvNeW6Y6cDkBR-36" value="" style="edgeStyle=orthogonalEdgeStyle;rounded=0;orthogonalLoop=1;jettySize=auto;html=1;entryX=0;entryY=0.5;entryDx=0;entryDy=0;entryPerimeter=0;exitX=0;exitY=1;exitDx=0;exitDy=0;exitPerimeter=0;" edge="1" parent="1" source="HrHExWCUvNeW6Y6cDkBR-32" target="HrHExWCUvNeW6Y6cDkBR-34">
          <mxGeometry relative="1" as="geometry">
            <mxPoint x="610" y="348" as="targetPoint" />
            <Array as="points">
              <mxPoint x="560" y="315" />
              <mxPoint x="560" y="348" />
            </Array>
          </mxGeometry>
        </mxCell>
        <mxCell id="HrHExWCUvNeW6Y6cDkBR-38" value="192.168.1.x" style="edgeLabel;html=1;align=center;verticalAlign=middle;resizable=0;points=[];" vertex="1" connectable="0" parent="HrHExWCUvNeW6Y6cDkBR-36">
          <mxGeometry x="-0.4309" y="-1" relative="1" as="geometry">
            <mxPoint as="offset" />
          </mxGeometry>
        </mxCell>
        <mxCell id="HrHExWCUvNeW6Y6cDkBR-32" value="" style="fontColor=#0066CC;verticalAlign=top;verticalLabelPosition=bottom;labelPosition=center;align=center;html=1;outlineConnect=0;fillColor=#CCCCCC;strokeColor=#6881B3;gradientColor=none;gradientDirection=north;strokeWidth=2;shape=mxgraph.networks.nas_filer;" vertex="1" parent="1">
          <mxGeometry x="620" y="280" width="100" height="35" as="geometry" />
        </mxCell>
        <mxCell id="HrHExWCUvNeW6Y6cDkBR-44" style="edgeStyle=orthogonalEdgeStyle;rounded=0;orthogonalLoop=1;jettySize=auto;html=1;entryX=0;entryY=0.283;entryDx=0;entryDy=0;entryPerimeter=0;" edge="1" parent="1" source="HrHExWCUvNeW6Y6cDkBR-34" target="HrHExWCUvNeW6Y6cDkBR-28">
          <mxGeometry relative="1" as="geometry">
            <mxPoint x="560" y="480" as="targetPoint" />
            <Array as="points">
              <mxPoint x="670" y="370" />
              <mxPoint x="560" y="370" />
              <mxPoint x="560" y="480" />
            </Array>
          </mxGeometry>
        </mxCell>
        <mxCell id="HrHExWCUvNeW6Y6cDkBR-34" value="" style="fontColor=#0066CC;verticalAlign=top;verticalLabelPosition=bottom;labelPosition=center;align=center;html=1;outlineConnect=0;fillColor=#CCCCCC;strokeColor=#6881B3;gradientColor=none;gradientDirection=north;strokeWidth=2;shape=mxgraph.networks.nas_filer;" vertex="1" parent="1">
          <mxGeometry x="620" y="330" width="100" height="35" as="geometry" />
        </mxCell>
        <mxCell id="HrHExWCUvNeW6Y6cDkBR-35" value="" style="fontColor=#0066CC;verticalAlign=top;verticalLabelPosition=bottom;labelPosition=center;align=center;html=1;outlineConnect=0;fillColor=#CCCCCC;strokeColor=#6881B3;gradientColor=none;gradientDirection=north;strokeWidth=2;shape=mxgraph.networks.nas_filer;" vertex="1" parent="1">
          <mxGeometry x="620" y="379" width="100" height="35" as="geometry" />
        </mxCell>
        <mxCell id="HrHExWCUvNeW6Y6cDkBR-37" value="" style="edgeStyle=orthogonalEdgeStyle;rounded=0;orthogonalLoop=1;jettySize=auto;html=1;entryX=0;entryY=0.5;entryDx=0;entryDy=0;entryPerimeter=0;exitX=0.5;exitY=1;exitDx=0;exitDy=0;exitPerimeter=0;" edge="1" parent="1" source="HrHExWCUvNeW6Y6cDkBR-34" target="HrHExWCUvNeW6Y6cDkBR-35">
          <mxGeometry relative="1" as="geometry">
            <mxPoint x="615" y="365" as="sourcePoint" />
            <mxPoint x="615" y="414.9761904761905" as="targetPoint" />
            <Array as="points">
              <mxPoint x="670" y="370" />
              <mxPoint x="560" y="370" />
              <mxPoint x="560" y="397" />
              <mxPoint x="620" y="397" />
            </Array>
          </mxGeometry>
        </mxCell>
        <mxCell id="HrHExWCUvNeW6Y6cDkBR-39" value="192.168.2.10" style="edgeLabel;html=1;align=center;verticalAlign=middle;resizable=0;points=[];" vertex="1" connectable="0" parent="HrHExWCUvNeW6Y6cDkBR-37">
          <mxGeometry x="-0.3809" y="-1" relative="1" as="geometry">
            <mxPoint x="-12.86" y="32.5" as="offset" />
          </mxGeometry>
        </mxCell>
        <mxCell id="HrHExWCUvNeW6Y6cDkBR-41" value="" style="edgeStyle=orthogonalEdgeStyle;rounded=0;orthogonalLoop=1;jettySize=auto;html=1;strokeColor=#000000;" edge="1" parent="1" source="HrHExWCUvNeW6Y6cDkBR-40" target="HrHExWCUvNeW6Y6cDkBR-34">
          <mxGeometry relative="1" as="geometry" />
        </mxCell>
        <mxCell id="HrHExWCUvNeW6Y6cDkBR-40" value="Ubuntu 18.04&lt;br&gt;Compiled QEMU&lt;br&gt;VM&#39;s: Mac, pfSense, Windows Commando, Ubuntu" style="text;html=1;strokeColor=#000000;fillColor=none;align=center;verticalAlign=middle;whiteSpace=wrap;rounded=0;" vertex="1" parent="1">
          <mxGeometry x="750" y="320" width="200" height="62.5" as="geometry" />
        </mxCell>
        <mxCell id="HrHExWCUvNeW6Y6cDkBR-43" style="edgeStyle=orthogonalEdgeStyle;rounded=0;orthogonalLoop=1;jettySize=auto;html=1;strokeColor=#000000;" edge="1" parent="1" source="HrHExWCUvNeW6Y6cDkBR-42" target="HrHExWCUvNeW6Y6cDkBR-35">
          <mxGeometry relative="1" as="geometry" />
        </mxCell>
        <mxCell id="HrHExWCUvNeW6Y6cDkBR-42" value="Proxmox:&lt;br&gt;All Ubuntu VM&#39;s&lt;br&gt;Portainer&lt;br&gt;k3s&lt;br&gt;" style="text;html=1;strokeColor=#000000;fillColor=none;align=center;verticalAlign=middle;whiteSpace=wrap;rounded=0;" vertex="1" parent="1">
          <mxGeometry x="750" y="414" width="200" height="62.5" as="geometry" />
        </mxCell>
        <mxCell id="HrHExWCUvNeW6Y6cDkBR-46" style="edgeStyle=orthogonalEdgeStyle;rounded=0;orthogonalLoop=1;jettySize=auto;html=1;entryX=1;entryY=0.5;entryDx=0;entryDy=0;entryPerimeter=0;" edge="1" parent="1" source="HrHExWCUvNeW6Y6cDkBR-45" target="HrHExWCUvNeW6Y6cDkBR-28">
          <mxGeometry relative="1" as="geometry" />
        </mxCell>
        <mxCell id="HrHExWCUvNeW6Y6cDkBR-45" value="Router: Belkin&lt;br&gt;Mode: Access Point" style="text;html=1;strokeColor=#000000;fillColor=none;align=center;verticalAlign=middle;whiteSpace=wrap;rounded=0;" vertex="1" parent="1">
          <mxGeometry x="740" y="500" width="200" height="62.5" as="geometry" />
        </mxCell>
        <mxCell id="HrHExWCUvNeW6Y6cDkBR-47" value="" style="aspect=fixed;html=1;points=[];align=center;image;fontSize=12;image=img/lib/mscae/Docker.svg;" vertex="1" parent="1">
          <mxGeometry x="960" y="424.75" width="50" height="41" as="geometry" />
        </mxCell>
        <mxCell id="HrHExWCUvNeW6Y6cDkBR-48" value="" style="aspect=fixed;html=1;points=[];align=center;image;fontSize=12;image=img/lib/mscae/Docker.svg;" vertex="1" parent="1">
          <mxGeometry x="950" y="219.5" width="50" height="41" as="geometry" />
        </mxCell>
      </root>
    </mxGraphModel>
  </diagram>
</mxfile>
